<svg width="26" height="28" viewBox="0 0 26 28" fill="none" xmlns="http://www.w3.org/2000/svg">
    <path fill-rule="evenodd" clip-rule="evenodd" d="M8.29933 7.56474C8.29933 4.31371 10.5398 1.84321 13.1175 1.84321C15.6952 1.84321 17.9356 4.31371 17.9356 7.56474C17.9356 10.8158 15.6952 13.2863 13.1175 13.2863C10.5398 13.2863 8.29933 10.8146 8.29933 7.56474ZM13.1175 0.638672C9.70743 0.638672 7.0948 3.83069 7.0948 7.56474C7.0948 9.32336 7.67298 10.9615 8.64263 12.2022C3.51854 14.551 0.770996 20.8182 0.770996 26.5362V27.1384H25.4639V26.5362C25.4639 20.7869 22.7128 14.5378 17.5923 12.2022C18.5608 10.9615 19.1401 9.32336 19.1401 7.56474C19.1401 3.83069 16.5275 0.638672 13.1175 0.638672ZM16.7058 13.1321C15.7132 13.9813 14.4798 14.4908 13.1175 14.4908C11.7551 14.4908 10.5205 13.9813 9.52796 13.1309C4.92062 15.0003 2.17669 20.5171 1.98637 25.9339H24.2474C24.0583 20.487 21.3095 14.9871 16.7058 13.1321Z" fill="black"/>
</svg>
