<svg width="26" height="30" viewBox="0 0 26 30" fill="none" xmlns="http://www.w3.org/2000/svg">
    <path fill-rule="evenodd" clip-rule="evenodd" d="M12.696 0.0249023C11.3997 0.0249023 10.6342 0.478241 10.2106 1.02819C10.0513 1.23416 9.95046 1.44225 9.88782 1.61743H6.59129V3.20995H0.221191V29.752H25.1708V3.20995H18.8007V1.61743H15.5041C15.4285 1.40513 15.3195 1.20623 15.1814 1.02819C14.7567 0.478241 13.9923 0.0249023 12.696 0.0249023ZM18.8007 4.27164V5.86416H6.59129V4.27164H1.28288V28.6904H24.1091V4.27164H18.8007ZM10.8402 2.15676L10.837 2.178L10.8157 2.67911H7.65298V4.80248H17.739V2.67911H14.5752L14.5539 2.17693L14.5518 2.1557C14.5209 1.98059 14.448 1.81557 14.3395 1.67476C14.1505 1.43057 13.7216 1.08659 12.696 1.08659C11.6704 1.08659 11.2415 1.42951 11.0504 1.67582C10.9427 1.81691 10.8705 1.98188 10.8402 2.15676ZM4.73335 9.58005V10.6417H20.6586V9.58005H4.73335ZM20.6586 14.3576V15.4193H4.73335V14.3576H20.6586ZM4.73335 19.1352V20.1969H20.6586V19.1352H4.73335ZM12.696 24.9745H4.73335V23.9128H12.696V24.9745Z" fill="black"/>
</svg>
