<svg width="35" height="25" viewBox=" 0 35 25" fill="none" xmlns="http://www.w3.org/2000/svg">
    <path fill-rule="evenodd" clip-rule="evenodd" d="M4.94893 0.800037C5.03032 0.800037 5.12876 0.84887 5.23418 0.956614L4.94505 0.0249023H1.84451C1.4771 0.0256775 1.18875 0.255893 1.03062 0.407819C0.9284 0.508843 0.835763 0.619125 0.7539 0.737251L0.748474 0.745002L0.746924 0.747328L1.07093 0.959715L1.39571 1.17133L1.40346 1.1597L1.43834 1.11319C1.4709 1.07133 1.51586 1.01785 1.57012 0.965915C1.69491 0.844219 1.79413 0.800812 1.84606 0.800037H2.52973L5.89382 2.48208L4.74972 3.91375H3.84126V4.68889H9.26643C10.8423 4.68889 12.3941 5.0749 13.787 5.81283L13.9963 5.92368L13.9738 5.95468C12.8382 7.56076 13.2917 9.95438 15.145 10.7938L15.1846 10.8117L18.6254 12.3209C19.979 12.9145 21.4409 13.2212 22.9189 13.2216H27.7673L30.2268 14.5246C30.6857 14.7681 31.0695 15.132 31.3372 15.5772C31.6048 16.0224 31.7462 16.5321 31.7461 17.0515V17.0724H9.25092V17.8476H31.6446C31.4688 18.5187 31.0757 19.1127 30.5267 19.5367C29.9777 19.9608 29.3036 20.1911 28.6099 20.1916H4.6164V20.9667H6.96273C6.9865 21.1848 7.02965 21.3961 7.09218 21.6008H2.28944V22.3759H7.43556C7.64485 22.7255 7.91382 23.0355 8.22852 23.2921H0.740723V24.0673H10.2043C10.3546 24.076 10.5052 24.076 10.6555 24.0673H18.7316C18.8818 24.076 19.0325 24.076 19.1827 24.0673H34.8466V23.2921H21.1585C21.4732 23.0363 21.7422 22.7263 21.9515 22.3759H28.427L28.2332 21.8542L27.9053 20.9667H28.6099C29.6478 20.9659 30.6429 20.5529 31.3764 19.8186C32.1098 19.0842 32.5216 18.0886 32.5212 17.0507C32.5212 15.7051 31.7779 14.4695 30.5896 13.8401L14.1505 5.12761C12.6462 4.33064 10.9696 3.9139 9.2672 3.91375H5.74189L6.79917 2.59292L7.09838 2.21776L6.66973 2.00382L4.26293 0.800037H4.94893ZM27.079 20.9667H22.4251C22.4013 21.1848 22.3582 21.3961 22.2957 21.6008H27.3139L27.079 20.9667ZM18.7579 23.2921H19.1564C19.7743 23.2469 20.3581 22.9915 20.8108 22.5685C21.2635 22.1454 21.5577 21.5802 21.6446 20.9667H16.2705C16.3574 21.5802 16.6516 22.1454 17.1043 22.5685C17.557 22.9915 18.14 23.2469 18.7579 23.2921ZM15.6194 21.6008C15.557 21.3939 15.5139 21.1816 15.4908 20.9667H13.8986C13.8749 21.1848 13.8317 21.3961 13.7692 21.6008H15.6194ZM15.9636 22.3759H13.425C13.2157 22.7255 12.9468 23.0355 12.6321 23.2921H16.7566C16.4408 23.0353 16.1724 22.7252 15.9636 22.3759ZM13.1173 20.9667H7.74406C7.83092 21.5802 8.12515 22.1454 8.57781 22.5685C9.03048 22.9915 9.61432 23.2469 10.2322 23.2921H10.6299C11.2477 23.2467 11.8313 22.9913 12.2838 22.5682C12.7364 22.1452 13.0305 21.5801 13.1173 20.9667ZM14.6877 6.28954L14.6079 6.40271C13.7126 7.66773 14.1164 9.47612 15.466 10.0877L15.497 10.1017L18.937 11.6108C20.1927 12.1612 21.5492 12.4464 22.9196 12.4464H26.3054L14.6877 6.28954ZM0.740723 20.1908V20.9659H3.84126V20.1908H0.740723ZM0.740723 4.68811H3.06613V3.91298H0.740723V4.68811ZM3.84126 17.0717V17.8468H2.29099V17.0717H3.84126ZM8.49207 17.0717H5.39153V17.8468H8.49207V17.0717ZM1.51586 8.56456H9.51292C10.1297 8.56456 10.7211 8.80956 11.1572 9.24565C11.5933 9.68175 11.8383 10.2732 11.8383 10.89C11.8383 11.5067 11.5933 12.0982 11.1572 12.5343C10.7211 12.9704 10.1297 13.2154 9.51292 13.2154H3.06613V12.4402H4.6164V9.33969H1.51586V8.56456ZM8.19752 12.4402H5.39153V9.33969H9.51292C9.92408 9.33969 10.3184 9.50303 10.6091 9.79376C10.8999 10.0845 11.0632 10.4788 11.0632 10.89C11.0632 11.3011 10.8999 11.6954 10.6091 11.9862C10.3184 12.2769 9.92408 12.4402 9.51292 12.4402H8.19752ZM0.740723 13.2154H2.29099V12.4402H0.740723V13.2154Z" fill="black"/>
</svg>
