<svg width="205" height="205" viewBox="0 0 205 205" fill="white" xmlns="http://www.w3.org/2000/svg">
    <rect x="0.5" y="0.0554199" width="204" height="204" rx="102" fill="#1E1E1E"/>
    <path d="M122.249 105.849C127.488 101.726 131.313 96.0732 133.19 89.676C135.067 83.2789 134.904 76.4557 132.722 70.1557C130.541 63.8557 126.451 58.3922 121.02 54.5253C115.589 50.6584 109.088 48.5804 102.421 48.5804C95.7538 48.5804 89.2527 50.6584 83.8217 54.5253C78.3908 58.3922 74.3002 63.8557 72.119 70.1557C69.9377 76.4557 69.7744 83.2789 71.6516 89.676C73.5288 96.0732 77.3533 101.726 82.5929 105.849C73.6147 109.446 65.7809 115.412 59.9266 123.111C54.0724 130.81 50.4171 139.953 49.3506 149.566C49.2734 150.268 49.3352 150.978 49.5324 151.656C49.7297 152.334 50.0586 152.966 50.5002 153.517C51.3923 154.63 52.6897 155.342 54.1071 155.498C55.5246 155.654 56.9459 155.241 58.0584 154.349C59.1709 153.457 59.8835 152.159 60.0394 150.742C61.213 140.294 66.1945 130.646 74.0323 123.639C81.8701 116.632 92.0146 112.759 102.528 112.759C113.041 112.759 123.185 116.632 131.023 123.639C138.861 130.646 143.842 140.294 145.016 150.742C145.161 152.055 145.788 153.268 146.775 154.146C147.762 155.025 149.039 155.506 150.36 155.498H150.948C152.349 155.337 153.629 154.629 154.51 153.527C155.391 152.426 155.801 151.022 155.651 149.619C154.58 139.979 150.905 130.812 145.02 123.101C139.136 115.391 131.264 109.427 122.249 105.849ZM102.421 102.054C98.1926 102.054 94.0594 100.8 90.5439 98.4512C87.0284 96.1022 84.2883 92.7635 82.6703 88.8572C81.0523 84.951 80.6289 80.6526 81.4538 76.5058C82.2786 72.3589 84.3147 68.5498 87.3044 65.56C90.2941 62.5703 94.1033 60.5343 98.2501 59.7094C102.397 58.8846 106.695 59.3079 110.602 60.9259C114.508 62.544 117.847 65.284 120.196 68.7995C122.545 72.3151 123.798 76.4482 123.798 80.6763C123.798 86.3461 121.546 91.7836 117.537 95.7927C113.528 99.8017 108.09 102.054 102.421 102.054Z" fill="white"/>
</svg>
